<?xml version="1.0" encoding="UTF-8" standalone="no"?>
<!-- Created with Inkscape (http://www.inkscape.org/) -->

<svg
   xmlns:dc="http://purl.org/dc/elements/1.1/"
   xmlns:cc="http://creativecommons.org/ns#"
   xmlns:rdf="http://www.w3.org/1999/02/22-rdf-syntax-ns#"
   xmlns:svg="http://www.w3.org/2000/svg"
   xmlns="http://www.w3.org/2000/svg"
   xmlns:xlink="http://www.w3.org/1999/xlink"
   xmlns:sodipodi="http://sodipodi.sourceforge.net/DTD/sodipodi-0.dtd"
   xmlns:inkscape="http://www.inkscape.org/namespaces/inkscape"
   width="297mm"
   height="210mm"
   viewBox="0 0 297 210"
   version="1.1"
   id="svg4540"
   inkscape:version="0.92.1 r15371"
   sodipodi:docname="NBR.svg">
  <defs
     id="defs4534">
    <linearGradient
       inkscape:collect="always"
       xlink:href="#linearGradient4726"
       id="linearGradient4728"
       x1="89.853111"
       y1="64.948982"
       x2="153.66568"
       y2="64.948982"
       gradientUnits="userSpaceOnUse"
       gradientTransform="rotate(5.0456104,121.7593,64.51515)" />
    <linearGradient
       inkscape:collect="always"
       id="linearGradient4726">
      <stop
         style="stop-color:#e6e6e6;stop-opacity:1"
         offset="0"
         id="stop4722" />
      <stop
         id="stop4733"
         offset="0.08410341"
         style="stop-color:#333333;stop-opacity:1" />
      <stop
         style="stop-color:#1a1a1a;stop-opacity:1"
         offset="0.15098406"
         id="stop4735" />
      <stop
         id="stop4737"
         offset="0.21935098"
         style="stop-color:#999999;stop-opacity:1" />
      <stop
         style="stop-color:#333333;stop-opacity:1"
         offset="0.30258024"
         id="stop4739" />
      <stop
         id="stop4741"
         offset="0.35905725"
         style="stop-color:#e6e6e6;stop-opacity:1" />
      <stop
         style="stop-color:#1a1a1a;stop-opacity:1"
         offset="0.41850674"
         id="stop4743" />
      <stop
         id="stop4745"
         offset="0.53591949"
         style="stop-color:#666666;stop-opacity:1" />
      <stop
         style="stop-color:#b3b3b3;stop-opacity:1"
         offset="0.57753408"
         id="stop4755" />
      <stop
         style="stop-color:#1a1a1a;stop-opacity:1"
         offset="0.63401109"
         id="stop4753" />
      <stop
         style="stop-color:#b3b3b3;stop-opacity:1"
         offset="0.68751562"
         id="stop4747" />
      <stop
         id="stop4757"
         offset="0.76479995"
         style="stop-color:#1a1a1a;stop-opacity:1" />
      <stop
         style="stop-color:#cccccc;stop-opacity:1"
         offset="0.82127696"
         id="stop4759" />
      <stop
         id="stop4749"
         offset="0.87180901"
         style="stop-color:#4d4d4d;stop-opacity:1" />
      <stop
         style="stop-color:#b3b3b3;stop-opacity:1"
         offset="0.94463468"
         id="stop4751" />
      <stop
         style="stop-color:#000000;stop-opacity:0.9948718"
         offset="1"
         id="stop4724" />
    </linearGradient>
    <linearGradient
       inkscape:collect="always"
       xlink:href="#linearGradient4791"
       id="linearGradient4773"
       gradientUnits="userSpaceOnUse"
       x1="89.853111"
       y1="64.081505"
       x2="153.66568"
       y2="64.081505"
       gradientTransform="rotate(5.0456096,121.7593,64.5152)" />
    <linearGradient
       id="linearGradient4791"
       inkscape:collect="always">
      <stop
         id="stop4777"
         offset="0"
         style="stop-color:#808080;stop-opacity:0.97948718" />
      <stop
         style="stop-color:#f70000;stop-opacity:1"
         offset="0.1138281"
         id="stop4779" />
      <stop
         style="stop-color:#808080;stop-opacity:1"
         offset="0.39175442"
         id="stop4781" />
      <stop
         id="stop4783"
         offset="0.61617619"
         style="stop-color:#de1e03;stop-opacity:1" />
      <stop
         style="stop-color:#ef0800;stop-opacity:1;"
         offset="0.73507518"
         id="stop4785" />
      <stop
         style="stop-color:#f60000;stop-opacity:1"
         offset="0.78263474"
         id="stop4787" />
      <stop
         id="stop4789"
         offset="1"
         style="stop-color:#ff0000;stop-opacity:1" />
    </linearGradient>
    <linearGradient
       inkscape:collect="always"
       xlink:href="#linearGradient4791"
       id="linearGradient5212"
       gradientUnits="userSpaceOnUse"
       gradientTransform="rotate(5.0456096,121.7593,64.5152)"
       x1="89.853111"
       y1="64.081505"
       x2="153.66568"
       y2="64.081505" />
  </defs>
  <sodipodi:namedview
     id="base"
     pagecolor="#ffffff"
     bordercolor="#666666"
     borderopacity="1.0"
     inkscape:pageopacity="0.0"
     inkscape:pageshadow="2"
     inkscape:zoom="0.35"
     inkscape:cx="462.02886"
     inkscape:cy="560"
     inkscape:document-units="mm"
     inkscape:current-layer="layer1"
     showgrid="false"
     inkscape:window-width="1366"
     inkscape:window-height="706"
     inkscape:window-x="-8"
     inkscape:window-y="-8"
     inkscape:window-maximized="1" />
  <metadata
     id="metadata4537">
    <rdf:RDF>
      <cc:Work
         rdf:about="">
        <dc:format>image/svg+xml</dc:format>
        <dc:type
           rdf:resource="http://purl.org/dc/dcmitype/StillImage" />
        <dc:title></dc:title>
      </cc:Work>
    </rdf:RDF>
  </metadata>
  <g
     inkscape:label="Capa 1"
     inkscape:groupmode="layer"
     id="layer1"
     transform="translate(0,-87)">
    <text
       xml:space="preserve"
       style="font-style:normal;font-variant:normal;font-weight:normal;font-stretch:normal;font-size:4.23333311px;line-height:1.25;font-family:'Brush Script Std';-inkscape-font-specification:'Brush Script Std';letter-spacing:0px;word-spacing:0px;fill:#000000;fill-opacity:1;stroke:none;stroke-width:0.26458332"
       x="254"
       y="109.52381"
       id="text5203"><tspan
         sodipodi:role="line"
         id="tspan5201"
         x="254"
         y="112.94434"
         style="stroke-width:0.26458332" /></text>
    <g
       id="g5284">
      <g
         transform="matrix(4.5383339,-0.07788076,0.12912527,5.4469324,-412.28596,-155.99939)"
         id="g4799">
        <path
           id="text4585"
           d="m 130.13636,53.143231 c -0.55668,-0.05324 -1.04666,-0.05472 -1.47035,-0.0043 -1.06337,0.126621 -1.98582,0.515686 -2.76641,1.166818 -0.76603,0.65665 -0.98347,1.661202 -0.65204,3.013577 l 2.49654,2.812219 c -0.0499,-1.016189 0.21582,-1.826709 0.7963,-2.432262 0.29093,-0.295614 0.63294,-0.535525 1.02694,-0.720176 0.394,-0.184647 0.85444,-0.308812 1.38058,-0.371462 l 0.65027,-0.05568 3.50863,4.258172 c 1.12333,1.374062 2.07475,2.586912 2.85356,3.639543 0.85626,1.159392 1.48312,2.056711 1.88006,2.690867 l -2.82639,-0.668715 -5.2e-4,-4.6e-5 -0.80267,-0.362938 0.34889,0.255435 -4.43061,-1.04847 c 0.10204,0.04002 0.14345,0.06779 -0.17453,-0.0092 -0.0631,-0.02889 -0.0944,-0.04646 -0.1146,-0.0594 l -1.12205,-0.265075 c -1.21834,-0.324324 -2.79383,-0.743774 -3.50322,-0.829115 -0.98016,-0.115261 -1.77228,-0.136927 -2.37596,-0.06504 -0.22708,0.02703 -0.50596,0.08563 -0.83621,0.1757 0.14495,-0.444961 0.22679,-0.875343 0.24573,-1.290805 0.0155,-0.422291 -0.0248,-0.845307 -0.12142,-1.268747 -0.1002,-0.430267 -0.26039,-0.863996 -0.48168,-1.301595 -0.67688,-1.303987 -1.6004,-2.357434 -2.76978,-3.160577 -0.58469,-0.401572 -1.35278,-0.770369 -2.30371,-1.106582 -0.93294,-0.32386 -2.04972,-0.600573 -3.35169,-0.829744 -1.29298,-0.222993 -2.5158,-0.265949 -3.66778,-0.128771 -1.88561,0.224529 -3.37246,0.845779 -4.46105,1.863837 l -0.34275,-0.430758 -0.0282,0.812509 c -0.0234,0.02615 -0.0478,0.05121 -0.0707,0.0778 l 0.0653,0.07684 -4e-5,5.27e-4 0.5907,0.695433 2.11027,2.486566 c 1.19045,-0.757934 2.29387,-1.252039 3.31093,-1.481886 l 7.00356,5.298737 c 2.56492,1.949065 4.02588,3.073138 4.3822,3.371418 0.34526,0.299602 0.54687,0.565155 0.60556,0.797388 0.0678,0.238405 -0.0892,0.380293 -0.47129,0.425804 -0.62029,0.07386 -3.15649,0.705833 -8.65254,-1.863741 l -0.28043,-0.214112 -1.50536,-0.965026 -3.4e-4,-0.02027 -0.30756,-0.17708 -0.19687,-0.126326 4.4e-4,0.013 -0.13133,-0.0754 0.005,-0.012 -0.70177,-0.389306 -0.007,-0.0042 -2.02613,-1.124615 -0.0953,-0.04888 -8.6e-4,-0.0022 -6.65837,-3.456178 0.0167,0.02222 -0.30172,-0.108087 -3.592776,-3.36968 -1.36493,-0.52256 -0.342379,2.215028 c 1.665876,1.657419 2.958365,2.906653 3.876435,3.746972 l 3.69831,3.343718 c -2.46062,-1.591779 -5.63632,-3.70342 -9.527166,-6.335504 l -5.086437,-2.134583 -0.582315,1.289619 -0.233269,-0.178303 -0.08204,0.87623 0.929717,0.680752 c 1.002295,0.798906 2.486951,2.128076 4.468951,4.004718 2.656625,2.525329 4.623839,4.429628 5.900919,5.712894 1.41613,1.418939 2.24357,2.429421 2.4834,3.031539 0.23429,0.602778 0.0661,0.93806 -0.50436,1.005988 -0.78645,0.09365 -2.32039,-0.310508 -4.60285,-1.213084 -0.800335,-0.317864 -1.650187,-0.6915 -2.548452,-1.120974 -0.883729,-0.423956 -1.856958,-0.920539 -2.919891,-1.489889 -0.981211,-0.528946 -2.057929,-1.137043 -3.211906,-1.807741 l -0.183914,-1.007616 -0.06596,0.86468 c -0.004,-0.0022 -0.0074,-0.0044 -0.01133,-0.0067 l 0.0079,0.05205 -4.6e-5,5.27e-4 0.308985,2.058803 0.01006,0.06833 5.778493,3.432966 c 0.701671,0.423888 1.197007,0.694967 1.485598,0.812835 0.306582,0.130216 0.891512,0.306319 1.755984,0.529591 0.908079,0.239829 1.901519,0.433539 2.979939,0.580591 1.09088,0.160072 1.92432,0.205799 2.50031,0.137232 0.74214,-0.08837 1.18181,-0.380102 1.31919,-0.874905 0.0687,-0.247398 0.0246,-0.560768 -0.13222,-0.940801 -0.14792,-0.37384 -0.40645,-0.821665 -0.77578,-1.343123 -0.37486,-0.520794 -0.89653,-1.157906 -1.56546,-1.911905 -0.65993,-0.747823 -1.5262,-1.677794 -2.59918,-2.789636 l -5.806402,-5.996098 16.760912,10.372666 1.17219,0.725505 -0.0694,-0.242684 0.01,-0.705696 -0.25727,-0.159152 -0.71464,-2.499781 c -1.23715,-0.925558 -2.32094,-1.745819 -3.25225,-2.461329 -0.9403,-0.721686 -1.95952,-1.524352 -3.05823,-2.408403 -1.1022,-0.890887 -2.12234,-1.730377 -3.06053,-2.517546 -0.93168,-0.787025 -1.77786,-1.514738 -2.53899,-2.184618 0.27259,0.245407 2.26224,1.181739 4.78477,2.407799 0.90516,0.439949 1.87675,0.917569 2.86537,1.414005 l 5.05608,2.695812 c 0.2032,0.118132 0.38872,0.232754 0.58236,0.349193 l 2.17253,1.434799 c 0.34865,0.264779 0.65012,0.518086 0.88181,0.753301 5.14107,2.584698 8.30434,3.806292 9.48954,3.66516 1.00246,-0.119366 1.32605,-0.791718 0.97034,-2.017958 -0.35917,-1.233082 -1.32675,-2.473541 -2.9029,-3.721195 0.70691,-0.192912 1.32057,-0.320681 1.8412,-0.382672 1.05228,-0.125304 2.46526,0.03308 4.23853,0.474346 1.79123,0.453628 3.68236,1.250144 5.67393,2.390336 -0.39052,0.133489 -0.72691,0.217045 -1.00936,0.250678 -0.72553,0.08639 -1.78689,-0.04439 -3.18433,-0.392683 -0.88102,-0.217031 -1.72805,-0.504418 -2.54051,-0.862916 l 5.8e-4,-4.81e-4 -1.29062,-1.522941 0.0336,0.894223 c -0.0551,-0.03073 -0.11097,-0.05995 -0.16572,-0.09141 l 0.93336,1.02139 9.6e-4,0.0011 1.72766,1.890432 2.39644,1.378308 c 2.11252,0.35738 3.58973,0.485798 4.43157,0.385556 0.66459,-0.07914 1.01838,-0.389259 1.06163,-0.930849 0.0438,-0.541539 -0.33243,-1.279448 -1.12791,-2.214107 -0.75781,-0.890392 0.0555,-1.414012 -1.03962,-2.268049 0.38549,0.141245 0.65519,0.256675 0.71873,0.326475 0.52018,0.575981 0.91991,1.007169 1.19939,1.292851 0.46787,0.147267 0.90406,0.301647 1.30891,0.463664 1.4236,0.562648 2.35196,0.818608 2.78397,0.767167 0.76983,-0.09167 0.28357,-1.273561 -1.45807,-3.545383 2.79955,0.949741 4.78101,1.623742 5.94513,2.021564 1.17309,0.403999 2.32403,0.803122 3.45146,1.198061 1.1364,0.40112 2.22257,0.790206 3.25862,1.167031 -0.0619,-0.05776 -0.09,-0.08289 -0.15059,-0.139359 l 0.001,9.4e-5 0.0509,-0.788191 -1.47223,-0.529442 c -1.16639,-1.080314 -2.07879,-1.917425 -2.44216,-2.229503 -2.7904,-1.175557 -5.83418,-2.219671 -9.13146,-3.131891 1.50461,-0.577869 2.33141,-1.357625 2.48087,-2.339557 0.15987,-0.961416 -0.15301,-1.888726 -0.93882,-2.781038 -0.77892,-0.878637 -1.60027,-1.614459 -2.46382,-2.207549 -0.7646,-0.525132 -1.80377,-1.082697 -3.11798,-1.672869 -1.3052,-0.583999 -2.65842,-1.035427 -4.05863,-1.354387 -0.69008,-0.157053 -1.31366,-0.26235 -1.87034,-0.315579 z m 1.70365,12.104022 0.28913,0.06859 c -0.13258,-0.052 -0.38015,-0.126829 -0.28913,-0.06859 z m 2.22185,-8.542589 c 1.25001,0.300601 2.52608,0.786732 3.82848,1.458052 1.61122,2.722303 1.68542,4.297517 0.22243,4.725444 -2.0894,-2.948078 -3.4397,-5.009422 -4.05091,-6.183496 z m -15.98443,1.762064 c 0.66384,0.05869 1.23176,0.154082 1.7038,0.286349 0.49762,0.136475 1.17866,0.381473 2.04443,0.735075 0.0623,0.355032 0.0748,0.792071 0.0378,1.311168 -0.0202,0.285135 -0.0229,0.66274 -0.009,1.132237 0.0198,0.46885 0.0449,0.860593 0.0752,1.175955 0.081,1.019729 0.10863,1.748788 0.0834,2.186739 l -7.93779,-6.275067 c 0.64117,-0.264829 1.3307,-0.441004 2.0673,-0.528717 0.64246,-0.0765 1.28731,-0.08441 1.93453,-0.02374 z m -11.15856,4.768011 c 0.28786,0.144121 0.55664,0.279696 0.81706,0.411417 l 0.003,0.01067 z"
           style="font-style:normal;font-variant:normal;font-weight:normal;font-stretch:normal;font-size:39.45817566px;line-height:1.25;font-family:'Brush Script Std';-inkscape-font-specification:'Brush Script Std';letter-spacing:0px;word-spacing:0px;fill:url(#linearGradient4728);fill-opacity:1;stroke:none;stroke-width:0.81104571"
           inkscape:connector-curvature="0" />
        <path
           style="font-style:normal;font-variant:normal;font-weight:normal;font-stretch:normal;font-size:39.45817566px;line-height:1.25;font-family:'Brush Script Std';-inkscape-font-specification:'Brush Script Std';letter-spacing:0px;word-spacing:0px;fill:url(#linearGradient5212);fill-opacity:1;stroke:none;stroke-width:0.81104571"
           d="m 91.141171,56.698081 -0.897513,1.987929 c 0.06851,0.04258 0.138622,0.08871 0.210585,0.138125 0.935511,0.642517 2.664644,2.158114 5.187759,4.54711 2.656632,2.525327 4.623728,4.429747 5.900808,5.713012 1.41613,1.418939 2.24399,2.429428 2.48382,3.031546 0.2343,0.602779 0.0659,0.937918 -0.50453,1.005845 -0.78645,0.09365 -2.32043,-0.310702 -4.602888,-1.213279 -0.800736,-0.317855 -1.65062,-0.691509 -2.548887,-1.120982 -0.883727,-0.423958 -1.856926,-0.920502 -2.919856,-1.489852 -1.057392,-0.570009 -2.214952,-1.222517 -3.472992,-1.957112 l 0.326915,2.179413 5.778186,3.433113 c 0.70167,0.42389 1.197073,0.694916 1.485663,0.812783 0.306582,0.130223 0.891643,0.30666 1.756114,0.529934 0.908075,0.239829 1.901365,0.433414 2.979795,0.580467 1.09088,0.160072 1.92432,0.205648 2.50031,0.137081 0.74214,-0.08837 1.1819,-0.37998 1.31928,-0.874783 0.0687,-0.247398 0.0248,-0.560892 -0.13203,-0.940925 -0.14791,-0.373842 -0.40653,-0.821531 -0.77587,-1.342988 -0.37486,-0.520795 -0.89684,-1.158211 -1.56578,-1.912211 -0.65993,-0.747822 -1.52601,-1.677506 -2.59899,-2.789348 l -5.806487,-5.996249 17.932997,11.098088 -1.03109,-3.607096 c -1.23715,-0.925558 -2.32076,-1.745832 -3.25207,-2.46134 -0.9403,-0.721686 -1.95988,-1.524568 -3.0586,-2.408618 -1.10219,-0.890887 -2.12239,-1.730006 -3.06058,-2.517185 -0.93265,-0.787838 -1.77964,-1.516867 -2.54138,-2.187323 0.71969,0.378248 4.11932,1.902355 5.15109,2.468161 1.02279,0.559632 2.66323,1.331901 3.35661,1.72778 l -3.35661,-1.72778 -5.497437,-5.156224 -1.365226,-0.52248 -0.342202,2.215163 c 1.665876,1.65742 2.958055,2.906326 3.876125,3.746643 l 3.69864,3.343858 c -2.46062,-1.591781 -5.63636,-3.703681 -9.5272,-6.335765 z m 20.487409,-2.385163 c -2.15443,0.256544 -3.78879,1.030907 -4.90273,2.323416 l 2.76618,3.259047 c 1.19044,-0.757934 2.29405,-1.252041 3.3111,-1.481886 l 7.00346,5.298832 c 2.56493,1.949065 4.02608,3.072956 4.3824,3.371237 0.34526,0.299602 0.54688,0.565265 0.60557,0.797497 0.0678,0.238406 -0.0893,0.380546 -0.4714,0.426059 -0.77538,0.09233 -4.53995,1.062316 -13.34441,-4.447715 -2.19744,-0.687974 -7.43006,-3.281614 -10.74496,-4.786165 0.70014,0.641547 13.46993,6.137878 16.3458,9.057459 5.14107,2.584699 8.30417,3.806497 9.48938,3.665366 1.00245,-0.119368 1.32613,-0.792127 0.97042,-2.018369 -0.35916,-1.233083 -1.3271,-2.473398 -2.90325,-3.721053 0.70691,-0.19291 1.32052,-0.320442 1.84115,-0.382433 1.05229,-0.125305 2.46557,0.03279 4.23883,0.474067 1.79124,0.453628 3.68213,1.250394 5.6737,2.390586 -0.39051,0.133488 -0.72654,0.217073 -1.00899,0.250707 -0.72553,0.08639 -1.78705,-0.0446 -3.18448,-0.392894 -1.40852,-0.346973 -2.72949,-0.874722 -3.96264,-1.583287 l 2.66206,2.912805 2.39609,1.378138 c 2.11252,0.35738 3.59016,0.486027 4.432,0.385784 0.6646,-0.07914 1.0184,-0.389558 1.06165,-0.931148 0.0438,-0.541539 -0.33266,-1.279507 -1.12814,-2.214166 -0.79548,-0.934655 0.14544,-1.46428 -1.21283,-2.397162 -0.68365,-0.469531 -3.91352,-1.50525 -3.91352,-1.50525 -0.56542,-0.258887 0.82293,0.19922 0,0 -0.8029,-0.194366 -3.77113,-1.036833 -4.74019,-1.153415 -0.98015,-0.115259 -1.7721,-0.137145 -2.37577,-0.06526 -0.22708,0.02703 -0.50568,0.08563 -0.83593,0.1757 0.14496,-0.444961 0.22663,-0.875077 0.24557,-1.290537 0.0155,-0.422297 -0.0248,-0.845152 -0.12141,-1.268593 -0.10019,-0.430266 -0.26072,-0.864218 -0.48201,-1.301816 -0.67688,-1.303988 -1.60028,-2.357568 -2.76966,-3.160712 -0.58469,-0.401573 -1.35266,-0.770454 -2.3036,-1.106671 -0.93294,-0.323858 -2.0499,-0.600348 -3.35187,-0.82952 -1.29298,-0.222994 -2.51559,-0.265823 -3.66757,-0.128648 z m 17.11386,-2.037851 c -1.06336,0.126621 -1.98591,0.515258 -2.7665,1.166391 -0.76603,0.65665 -0.98334,1.66128 -0.6519,3.013654 l 2.49646,2.812435 c -0.0499,-1.016187 0.2155,-1.826839 0.79598,-2.4324 0.29094,-0.295612 0.63343,-0.535696 1.02744,-0.720349 0.39399,-0.184649 0.85423,-0.308439 1.38037,-0.37109 l 0.65014,-0.05566 3.50872,4.257839 c 1.12334,1.374061 2.07466,2.587304 2.85347,3.639935 0.85626,1.159392 1.48295,2.05626 1.87989,2.690414 l -12.62569,-2.987263 c 0.30439,0.311714 9.12277,2.650326 9.54544,3.114686 0.52018,0.575983 0.92015,1.006841 1.19963,1.292523 0.46787,0.147267 0.90401,0.301897 1.30886,0.463915 1.4236,0.562646 2.35206,0.818415 2.78406,0.766974 0.76984,-0.09167 0.28369,-1.273564 -1.45795,-3.545386 2.79955,0.949742 4.78098,1.623564 5.94511,2.021384 1.17309,0.403999 2.32382,0.803556 3.45124,1.198495 1.13641,0.401118 2.22271,0.790192 3.25876,1.167014 -2.15645,-2.012203 -3.49407,-3.241175 -4.01297,-3.686826 -2.7904,-1.175555 -5.83453,-2.219479 -9.13181,-3.1317 1.50461,-0.577869 2.33161,-1.357762 2.48106,-2.339694 0.15988,-0.961415 -0.15322,-1.888378 -0.93904,-2.780689 -0.77891,-0.878639 -1.59995,-1.614389 -2.4635,-2.207478 -0.76461,-0.525132 -1.80394,-1.082789 -3.11814,-1.672963 -1.30521,-0.583996 -2.65844,-1.035688 -4.05865,-1.354649 -1.38015,-0.314103 -2.4931,-0.420418 -3.34048,-0.319519 z m -12.52339,5.351271 c 0.64246,-0.0765 1.2874,-0.08431 1.93462,-0.02364 0.66383,0.05869 1.23165,0.154068 1.70368,0.286336 0.49763,0.136474 1.17884,0.381339 2.04462,0.734942 0.0623,0.355031 0.0749,0.792088 0.0378,1.311186 -0.0202,0.285134 -0.0232,0.662683 -0.009,1.132187 0.0198,0.46885 0.0449,0.860819 0.0752,1.176179 0.081,1.019728 0.10873,1.748681 0.0835,2.186632 l -7.93776,-6.275188 c 0.64117,-0.264829 1.33056,-0.440921 2.06716,-0.528634 z m 17.91902,-1.785963 c 1.25,0.300603 2.52642,0.786857 3.82882,1.458178 1.61122,2.722302 1.68537,4.297395 0.22238,4.725322 -2.0894,-2.948079 -3.43999,-5.009424 -4.0512,-6.1835 z"
           id="path4594"
           inkscape:connector-curvature="0"
           sodipodi:nodetypes="ccscccscccccccccsccccccccccccccccccccccsccccccscccsccsccsccccsscscccsccccsccssccccccccccccccsccccccccsccssccccccccscccc" />
      </g>
      <text
         transform="matrix(1.013142,-0.14118929,0.27524152,0.94867141,0,0)"
         id="text4803"
         y="269.72723"
         x="-4.7423849"
         style="font-style:normal;font-variant:normal;font-weight:normal;font-stretch:normal;font-size:83.89739227px;line-height:1.25;font-family:'Brush Script Std';-inkscape-font-specification:'Brush Script Std';letter-spacing:0px;word-spacing:0px;fill:#1a1a1a;fill-opacity:1;stroke:none;stroke-width:5.24358702;"
         xml:space="preserve"><tspan
           style="font-style:normal;font-variant:normal;font-weight:normal;font-stretch:normal;font-size:20.68611145px;font-family:'Matura MT Script Capitals';-inkscape-font-specification:'Matura MT Script Capitals, Normal';font-variant-ligatures:normal;font-variant-caps:normal;font-variant-numeric:normal;font-feature-settings:normal;text-align:start;writing-mode:lr-tb;text-anchor:start;fill:#1a1a1a;stroke-width:5.24358702;"
           y="269.72723"
           x="-4.7423849"
           id="tspan4801"
           sodipodi:role="line">Nelson Beltran Reyes</tspan></text>
    </g>
  </g>
</svg>
